# xmcd
#
# Track frame offsets:
#	150
#	13238
#	32676
#	42943
#	56397
#	72183
#	85442
#	98893
#	112741
#	122365
#	137221
#	145857
#	160412
#	170100
#
# Disc length: 2462 seconds
#
# Revision: 1
# Processed by: cddbd v1.5.2PL0 Copyright (c) Steve Scherf et al.
# Submitted via: audiograbber 1.83.01
#
DISCID=bd099c0e
DTITLE=Various Artist - Berg- und Wanderlieder CD3
DYEAR=2012
DGENRE=Volksmusik
TTITLE0=Bergkameraden
TTITLE1=Ich lieb´die Berge meiner Heimat
TTITLE2=Lustig ist das Zigeunerleben
TTITLE3=Wir sind Kinder der Berge
TTITLE4=Schau das Alpenglüh´n
TTITLE5=Wo der Wildbach rauscht
TTITLE6=Schwarzbraun ist die Haselnuss
TTITLE7=Das letzte Alpenglüh´n
TTITLE8=Hoch auf dem gelben Wagen
TTITLE9=Karwendellied
TTITLE10=Wenn ich auf hohen Bergen steh´
TTITLE11=Herzschlag meiner Berge
TTITLE12=Auf dem Berg, do steht a kloanes Hütterl
TTITLE13=Der Ruf der Berge
EXTD=
EXTT0=
EXTT1=
EXTT2=
EXTT3=
EXTT4=
EXTT5=
EXTT6=
EXTT7=
EXTT8=
EXTT9=
EXTT10=
EXTT11=
EXTT12=
EXTT13=
PLAYORDER=
